<?xml version="1.0" standalone="no"?>
<!DOCTYPE svg PUBLIC "-//W3C//DTD SVG 20010904//EN"
 "http://www.w3.org/TR/2001/REC-SVG-20010904/DTD/svg10.dtd">
<svg version="1.0" xmlns="http://www.w3.org/2000/svg"
 width="158.000000pt" height="158.000000pt" viewBox="0 0 158.000000 158.000000"
 preserveAspectRatio="xMidYMid meet">
<metadata>
Created by potrace 1.11, written by Peter Selinger 2001-2013
</metadata>
<g transform="translate(0.000000,158.000000) scale(0.100000,-0.100000)"
fill="#000000" stroke="none">
<path d="M774 1570 c-35 -14 -64 -59 -64 -100 0 -67 65 -113 132 -94 94 27 94
168 -1 194 -42 11 -39 11 -67 0z"/>
<path d="M642 1472 c-43 -43 -69 -92 -77 -146 -6 -35 -5 -36 23 -36 27 0 31 4
41 45 6 24 25 60 41 79 20 22 30 44 30 65 0 41 -12 39 -58 -7z"/>
<path d="M925 1476 c2 -19 12 -45 25 -58 26 -27 50 -79 50 -108 0 -16 7 -20
30 -20 26 0 30 4 30 28 0 42 -43 124 -84 160 -20 17 -40 32 -45 32 -4 0 -7
-15 -6 -34z"/>
<path d="M311 1300 c-18 -4 -44 -14 -57 -21 l-24 -12 29 -18 c24 -14 36 -16
70 -7 32 8 51 7 86 -5 44 -14 46 -14 60 6 20 29 19 32 -10 45 -35 16 -113 22
-154 12z"/>
<path d="M758 1295 c-2 -2 -23 -5 -48 -8 -111 -13 -242 -91 -311 -184 -55 -75
-66 -95 -88 -168 -84 -272 78 -559 359 -635 25 -7 81 -12 125 -12 273 2 492
215 499 487 8 273 -202 501 -476 518 -32 2 -59 3 -60 2z m18 -157 c-2 -29 -5
-59 -5 -65 -1 -14 -29 -17 -55 -7 -13 5 -11 15 14 65 17 32 35 59 40 59 5 0 8
-24 6 -52z m88 -8 c17 -33 28 -62 25 -64 -3 -3 -22 -7 -43 -10 l-37 -5 2 62
c3 98 12 101 53 17z m-174 2 c-19 -39 -42 -53 -54 -34 -5 9 64 86 70 79 2 -2
-5 -22 -16 -45z m245 6 c38 -41 38 -42 17 -51 -12 -6 -23 -8 -25 -6 -17 26
-45 99 -38 99 5 0 26 -19 46 -42z m-315 8 c0 -3 -4 -8 -10 -11 -5 -3 -10 -1
-10 4 0 6 5 11 10 11 6 0 10 -2 10 -4z m380 -11 c11 -13 10 -14 -4 -9 -9 3
-16 10 -16 15 0 13 6 11 20 -6z m-426 -23 c4 -7 -20 -51 -49 -90 -1 -1 -10 0
-19 4 -25 9 -19 30 17 63 34 32 43 36 51 23z m514 -45 c31 -32 32 -34 14 -50
-18 -16 -20 -15 -45 24 -15 22 -27 45 -27 50 0 19 27 8 58 -24z m-449 -10 c8
-10 7 -26 -5 -60 -9 -26 -18 -47 -20 -47 -4 0 -46 25 -63 37 -2 1 8 21 23 43
27 42 46 49 65 27z m387 -37 c15 -22 25 -42 23 -44 -6 -6 -68 -36 -73 -36 -2
0 -10 23 -16 51 -10 43 -10 53 1 60 25 16 38 9 65 -31z m-263 0 c8 0 10 -94 2
-102 -9 -9 -105 14 -105 25 0 5 5 27 12 49 11 38 13 39 47 34 20 -3 39 -5 44
-6z m161 -37 c9 -26 13 -50 9 -54 -5 -5 -35 -9 -67 -11 l-60 -3 -1 43 c-1 55
2 60 50 65 22 2 43 4 47 5 3 1 13 -19 22 -45z m-442 -54 l-18 -50 -27 21 c-26
21 -26 22 -12 57 25 58 33 65 56 42 20 -20 20 -21 1 -70z m685 13 c4 -16 -1
-30 -14 -44 -20 -20 -20 -20 -37 22 -16 40 -16 44 1 62 17 19 18 19 31 1 7
-10 16 -29 19 -41z m-585 -14 c29 -14 31 -21 20 -80 l-7 -37 -47 21 c-27 11
-48 26 -48 33 0 27 31 87 43 82 7 -3 24 -11 39 -19z m498 -14 c18 -46 12 -59
-35 -82 l-45 -22 -5 28 c-4 15 -8 35 -10 45 -2 12 8 24 33 37 48 25 51 25 62
-6z m-315 -86 l0 -47 -35 5 c-102 13 -98 11 -93 52 6 61 5 61 70 48 l58 -12 0
-46z m186 45 c0 -10 3 -30 5 -44 5 -30 -8 -36 -101 -44 l-55 -5 2 47 3 48 50
3 c27 2 52 5 54 8 12 11 41 2 42 -13z m-495 -92 l1 -61 -31 19 c-26 17 -31 27
-34 67 -5 70 2 80 36 56 24 -18 27 -27 28 -81z m740 37 c5 -50 3 -56 -20 -72
-14 -9 -28 -16 -31 -16 -3 0 -5 26 -5 59 0 50 3 61 23 74 12 8 23 14 25 12 2
-1 5 -27 8 -57z m-94 -68 c-6 -47 -15 -56 -69 -74 l-45 -15 5 56 c3 32 9 59
13 60 5 2 27 12 49 22 36 16 41 16 46 2 4 -9 4 -32 1 -51z m-549 41 c44 -19
45 -20 48 -71 2 -28 2 -53 1 -55 -8 -8 -88 27 -99 42 -15 19 -18 103 -4 103 5
0 30 -9 54 -19z m206 -47 c2 -2 5 -27 7 -55 l3 -52 -56 6 c-31 3 -59 9 -63 14
-10 10 -21 89 -14 96 6 5 116 -3 123 -9z m197 -35 c-3 -29 -8 -54 -10 -57 -3
-2 -37 -7 -76 -10 l-71 -5 3 54 3 54 50 3 c27 2 52 5 54 8 2 2 15 4 28 4 22 0
23 -3 19 -51z m-466 -92 c14 -34 27 -66 29 -70 2 -5 -15 1 -37 12 -33 17 -44
30 -61 76 -28 73 -27 77 12 59 26 -12 38 -29 57 -77z m680 30 c-24 -64 -46
-93 -77 -102 l-23 -6 25 53 c14 29 25 59 25 66 0 12 60 55 67 48 2 -2 -6 -29
-17 -59z m-593 -14 c12 -3 26 -10 31 -17 12 -15 35 -97 29 -102 -3 -3 -17 -2
-31 2 -26 6 -66 61 -81 113 -6 21 -5 23 11 16 11 -4 29 -10 41 -12z m482 -30
c-27 -65 -42 -82 -78 -93 -36 -10 -37 -7 -13 64 14 41 23 52 52 62 58 21 61
18 39 -33z m-301 -2 c8 -1 12 -19 12 -57 l0 -56 -36 5 c-45 6 -50 12 -68 70
l-14 47 46 -4 c26 -2 53 -5 60 -5z m182 6 c0 -14 -35 -103 -42 -108 -13 -9
-88 -10 -89 -1 0 4 -2 28 -4 54 l-3 47 37 4 c54 6 101 7 101 4z m-369 -133
c32 -34 6 -30 -33 6 -27 24 -29 28 -11 24 12 -3 31 -17 44 -30z m489 12 c0 -2
-11 -11 -25 -20 -25 -17 -25 -16 -13 4 11 17 38 29 38 16z m-385 -47 c23 -43
14 -45 -25 -4 -31 32 -32 35 -12 35 14 0 27 -11 37 -31z m284 14 c-16 -21 -50
-53 -56 -53 -5 0 16 41 30 58 5 6 16 12 24 12 13 0 13 -3 2 -17z m-188 -2 c0
-3 2 -18 4 -33 5 -39 -29 -38 -50 2 -8 16 -15 31 -15 34 0 7 60 4 61 -3z m109
-6 c0 -21 -32 -55 -51 -55 -14 0 -19 7 -19 28 0 16 2 31 5 34 10 10 65 4 65
-7z"/>
<path d="M1193 1269 c-23 -4 -52 -13 -63 -19 -20 -11 -20 -13 -7 -33 9 -13 22
-20 34 -18 10 2 52 5 93 6 41 0 86 7 99 14 l25 14 -27 14 c-40 20 -107 30
-154 22z"/>
<path d="M146 1229 c-34 -27 -47 -75 -31 -114 7 -17 10 -45 8 -62 -9 -61 42
-164 98 -197 25 -15 27 -14 37 10 11 22 8 28 -23 59 -19 19 -40 53 -46 76 -9
28 -21 44 -37 50 -14 5 -22 12 -19 15 3 3 18 -1 35 -10 22 -11 38 -13 64 -6
118 33 99 200 -22 200 -23 0 -48 -8 -64 -21z"/>
<path d="M1324 1186 c-43 -43 -46 -90 -8 -135 32 -38 80 -49 123 -27 78 41 75
149 -4 182 -52 21 -74 17 -111 -20z"/>
<path d="M1443 1013 c-13 -8 -23 -23 -23 -32 0 -22 -35 -78 -66 -105 l-26 -22
20 -24 21 -25 35 35 c41 39 71 97 79 153 6 41 -3 46 -40 20z"/>
<path d="M187 749 c-41 -31 -77 -100 -84 -160 -6 -53 -6 -54 14 -36 11 9 24
17 29 17 5 0 15 19 22 43 7 23 29 58 49 78 31 33 33 39 21 58 -16 26 -16 26
-51 0z"/>
<path d="M1328 715 c-13 -24 -12 -28 24 -65 21 -23 40 -55 43 -73 4 -22 16
-39 35 -50 38 -23 38 -22 34 18 -6 66 -48 138 -106 183 -14 12 -19 10 -30 -13z"/>
<path d="M142 557 c-78 -44 -70 -160 14 -187 71 -24 134 21 134 94 -1 81 -80
130 -148 93z"/>
<path d="M1332 525 c-32 -14 -62 -59 -62 -95 0 -29 27 -77 49 -90 51 -27 122
-4 146 46 26 55 5 113 -50 136 -42 17 -47 17 -83 3z"/>
<path d="M410 378 c-14 -5 -53 -8 -87 -5 -47 3 -67 1 -88 -13 l-26 -17 28 -12
c58 -23 118 -28 173 -14 30 7 56 16 59 18 5 6 -20 55 -28 54 -3 0 -17 -5 -31
-11z"/>
<path d="M1106 336 c-18 -29 -11 -37 48 -56 44 -14 107 -8 163 15 l37 16 -29
18 c-23 13 -39 16 -65 10 -41 -9 -90 -5 -119 10 -15 9 -22 6 -35 -13z"/>
<path d="M524 255 c11 -59 35 -104 76 -145 22 -22 45 -40 50 -40 21 0 10 66
-14 89 -25 23 -40 54 -50 104 -5 22 -12 27 -37 27 -30 0 -31 -1 -25 -35z"/>
<path d="M960 271 c0 -28 -26 -83 -52 -111 -12 -13 -21 -32 -20 -42 2 -10 -1
-18 -5 -18 -5 0 -9 10 -10 22 -3 35 -37 72 -76 82 -68 17 -127 -30 -127 -103
0 -37 41 -88 79 -96 42 -9 96 17 112 53 9 20 16 27 21 19 12 -19 80 44 111
103 15 29 27 66 27 82 0 24 -4 28 -30 28 -23 0 -30 -5 -30 -19z"/>
</g>
</svg>
